<mxfile host="app.diagrams.net" agent="Mozilla/5.0 (X11; Linux x86_64) AppleWebKit/537.36 (KHTML, like Gecko) Chrome/133.0.0.0 Safari/537.36" version="26.0.16" pages="2">
  <diagram id="C5RBs43oDa-KdzZeNtuy" name="theory">
    <mxGraphModel dx="1024" dy="499" grid="0" gridSize="10" guides="1" tooltips="1" connect="1" arrows="1" fold="1" page="1" pageScale="1" pageWidth="827" pageHeight="1169" math="0" shadow="0">
      <root>
        <mxCell id="WIyWlLk6GJQsqaUBKTNV-0" />
        <mxCell id="WIyWlLk6GJQsqaUBKTNV-1" parent="WIyWlLk6GJQsqaUBKTNV-0" />
        <mxCell id="0mSVWusYjBxYVpm7WllX-0" value="IProduct" style="swimlane;fontStyle=1;align=center;verticalAlign=top;childLayout=stackLayout;horizontal=1;startSize=26;horizontalStack=0;resizeParent=1;resizeParentMax=0;resizeLast=0;collapsible=1;marginBottom=0;whiteSpace=wrap;html=1;" vertex="1" parent="WIyWlLk6GJQsqaUBKTNV-1">
          <mxGeometry x="722" y="327" width="160" height="60" as="geometry" />
        </mxCell>
        <mxCell id="0mSVWusYjBxYVpm7WllX-2" value="" style="line;strokeWidth=1;fillColor=none;align=left;verticalAlign=middle;spacingTop=-1;spacingLeft=3;spacingRight=3;rotatable=0;labelPosition=right;points=[];portConstraint=eastwest;strokeColor=inherit;" vertex="1" parent="0mSVWusYjBxYVpm7WllX-0">
          <mxGeometry y="26" width="160" height="8" as="geometry" />
        </mxCell>
        <mxCell id="0mSVWusYjBxYVpm7WllX-3" value="+ member methods..." style="text;strokeColor=none;fillColor=none;align=left;verticalAlign=top;spacingLeft=4;spacingRight=4;overflow=hidden;rotatable=0;points=[[0,0.5],[1,0.5]];portConstraint=eastwest;whiteSpace=wrap;html=1;" vertex="1" parent="0mSVWusYjBxYVpm7WllX-0">
          <mxGeometry y="34" width="160" height="26" as="geometry" />
        </mxCell>
        <mxCell id="0mSVWusYjBxYVpm7WllX-4" value="ConcreteProduct" style="swimlane;fontStyle=1;align=center;verticalAlign=top;childLayout=stackLayout;horizontal=1;startSize=26;horizontalStack=0;resizeParent=1;resizeParentMax=0;resizeLast=0;collapsible=1;marginBottom=0;whiteSpace=wrap;html=1;" vertex="1" parent="WIyWlLk6GJQsqaUBKTNV-1">
          <mxGeometry x="722" y="473" width="160" height="60" as="geometry" />
        </mxCell>
        <mxCell id="0mSVWusYjBxYVpm7WllX-6" value="" style="line;strokeWidth=1;fillColor=none;align=left;verticalAlign=middle;spacingTop=-1;spacingLeft=3;spacingRight=3;rotatable=0;labelPosition=right;points=[];portConstraint=eastwest;strokeColor=inherit;" vertex="1" parent="0mSVWusYjBxYVpm7WllX-4">
          <mxGeometry y="26" width="160" height="8" as="geometry" />
        </mxCell>
        <mxCell id="0mSVWusYjBxYVpm7WllX-7" value="+ member methods..." style="text;strokeColor=none;fillColor=none;align=left;verticalAlign=top;spacingLeft=4;spacingRight=4;overflow=hidden;rotatable=0;points=[[0,0.5],[1,0.5]];portConstraint=eastwest;whiteSpace=wrap;html=1;" vertex="1" parent="0mSVWusYjBxYVpm7WllX-4">
          <mxGeometry y="34" width="160" height="26" as="geometry" />
        </mxCell>
        <mxCell id="0mSVWusYjBxYVpm7WllX-8" value="" style="endArrow=block;dashed=1;endFill=0;endSize=12;html=1;rounded=0;exitX=0.5;exitY=0;exitDx=0;exitDy=0;entryX=0.487;entryY=1.125;entryDx=0;entryDy=0;entryPerimeter=0;" edge="1" parent="WIyWlLk6GJQsqaUBKTNV-1" source="0mSVWusYjBxYVpm7WllX-4" target="0mSVWusYjBxYVpm7WllX-3">
          <mxGeometry width="160" relative="1" as="geometry">
            <mxPoint x="893" y="543" as="sourcePoint" />
            <mxPoint x="1053" y="543" as="targetPoint" />
          </mxGeometry>
        </mxCell>
        <mxCell id="0mSVWusYjBxYVpm7WllX-9" value="IBuilder" style="swimlane;fontStyle=1;align=center;verticalAlign=top;childLayout=stackLayout;horizontal=1;startSize=26;horizontalStack=0;resizeParent=1;resizeParentMax=0;resizeLast=0;collapsible=1;marginBottom=0;whiteSpace=wrap;html=1;" vertex="1" parent="WIyWlLk6GJQsqaUBKTNV-1">
          <mxGeometry x="386" y="327" width="160" height="60" as="geometry" />
        </mxCell>
        <mxCell id="0mSVWusYjBxYVpm7WllX-10" value="" style="line;strokeWidth=1;fillColor=none;align=left;verticalAlign=middle;spacingTop=-1;spacingLeft=3;spacingRight=3;rotatable=0;labelPosition=right;points=[];portConstraint=eastwest;strokeColor=inherit;" vertex="1" parent="0mSVWusYjBxYVpm7WllX-9">
          <mxGeometry y="26" width="160" height="8" as="geometry" />
        </mxCell>
        <mxCell id="0mSVWusYjBxYVpm7WllX-11" value="+ build( ) : IProduct" style="text;strokeColor=none;fillColor=none;align=left;verticalAlign=top;spacingLeft=4;spacingRight=4;overflow=hidden;rotatable=0;points=[[0,0.5],[1,0.5]];portConstraint=eastwest;whiteSpace=wrap;html=1;" vertex="1" parent="0mSVWusYjBxYVpm7WllX-9">
          <mxGeometry y="34" width="160" height="26" as="geometry" />
        </mxCell>
        <mxCell id="0mSVWusYjBxYVpm7WllX-12" value="ConcreteBuilder" style="swimlane;fontStyle=1;align=center;verticalAlign=top;childLayout=stackLayout;horizontal=1;startSize=26;horizontalStack=0;resizeParent=1;resizeParentMax=0;resizeLast=0;collapsible=1;marginBottom=0;whiteSpace=wrap;html=1;" vertex="1" parent="WIyWlLk6GJQsqaUBKTNV-1">
          <mxGeometry x="316" y="463" width="293.5" height="112" as="geometry" />
        </mxCell>
        <mxCell id="0mSVWusYjBxYVpm7WllX-16" value="- product : IProduct" style="text;strokeColor=none;fillColor=none;align=left;verticalAlign=top;spacingLeft=4;spacingRight=4;overflow=hidden;rotatable=0;points=[[0,0.5],[1,0.5]];portConstraint=eastwest;whiteSpace=wrap;html=1;" vertex="1" parent="0mSVWusYjBxYVpm7WllX-12">
          <mxGeometry y="26" width="293.5" height="26" as="geometry" />
        </mxCell>
        <mxCell id="0mSVWusYjBxYVpm7WllX-13" value="" style="line;strokeWidth=1;fillColor=none;align=left;verticalAlign=middle;spacingTop=-1;spacingLeft=3;spacingRight=3;rotatable=0;labelPosition=right;points=[];portConstraint=eastwest;strokeColor=inherit;" vertex="1" parent="0mSVWusYjBxYVpm7WllX-12">
          <mxGeometry y="52" width="293.5" height="8" as="geometry" />
        </mxCell>
        <mxCell id="0mSVWusYjBxYVpm7WllX-14" value="- member methods..." style="text;strokeColor=none;fillColor=none;align=left;verticalAlign=top;spacingLeft=4;spacingRight=4;overflow=hidden;rotatable=0;points=[[0,0.5],[1,0.5]];portConstraint=eastwest;whiteSpace=wrap;html=1;" vertex="1" parent="0mSVWusYjBxYVpm7WllX-12">
          <mxGeometry y="60" width="293.5" height="26" as="geometry" />
        </mxCell>
        <mxCell id="0mSVWusYjBxYVpm7WllX-19" value="+ build( ) : IProduct" style="text;strokeColor=none;fillColor=none;align=left;verticalAlign=top;spacingLeft=4;spacingRight=4;overflow=hidden;rotatable=0;points=[[0,0.5],[1,0.5]];portConstraint=eastwest;whiteSpace=wrap;html=1;" vertex="1" parent="0mSVWusYjBxYVpm7WllX-12">
          <mxGeometry y="86" width="293.5" height="26" as="geometry" />
        </mxCell>
        <mxCell id="0mSVWusYjBxYVpm7WllX-15" value="" style="endArrow=block;dashed=1;endFill=0;endSize=12;html=1;rounded=0;exitX=0.5;exitY=0;exitDx=0;exitDy=0;entryX=0.487;entryY=1.125;entryDx=0;entryDy=0;entryPerimeter=0;" edge="1" parent="WIyWlLk6GJQsqaUBKTNV-1" source="0mSVWusYjBxYVpm7WllX-12" target="0mSVWusYjBxYVpm7WllX-11">
          <mxGeometry width="160" relative="1" as="geometry">
            <mxPoint x="563" y="543" as="sourcePoint" />
            <mxPoint x="723" y="543" as="targetPoint" />
          </mxGeometry>
        </mxCell>
        <mxCell id="0mSVWusYjBxYVpm7WllX-20" value="client" style="rounded=0;whiteSpace=wrap;html=1;" vertex="1" parent="WIyWlLk6GJQsqaUBKTNV-1">
          <mxGeometry x="574" y="222" width="120" height="60" as="geometry" />
        </mxCell>
        <mxCell id="0mSVWusYjBxYVpm7WllX-21" value="" style="endArrow=diamondThin;endFill=0;endSize=24;html=1;rounded=0;exitX=0;exitY=0.5;exitDx=0;exitDy=0;" edge="1" parent="WIyWlLk6GJQsqaUBKTNV-1" source="0mSVWusYjBxYVpm7WllX-4" target="0mSVWusYjBxYVpm7WllX-16">
          <mxGeometry width="160" relative="1" as="geometry">
            <mxPoint x="721" y="505" as="sourcePoint" />
            <mxPoint x="711" y="352" as="targetPoint" />
          </mxGeometry>
        </mxCell>
        <mxCell id="0mSVWusYjBxYVpm7WllX-22" value="return" style="html=1;verticalAlign=bottom;endArrow=open;dashed=1;endSize=8;curved=0;rounded=0;exitX=1;exitY=0.5;exitDx=0;exitDy=0;entryX=-0.019;entryY=1.154;entryDx=0;entryDy=0;entryPerimeter=0;" edge="1" parent="WIyWlLk6GJQsqaUBKTNV-1" source="0mSVWusYjBxYVpm7WllX-19" target="0mSVWusYjBxYVpm7WllX-7">
          <mxGeometry relative="1" as="geometry">
            <mxPoint x="524" y="726" as="sourcePoint" />
            <mxPoint x="444" y="726" as="targetPoint" />
          </mxGeometry>
        </mxCell>
        <mxCell id="0mSVWusYjBxYVpm7WllX-24" value="" style="endArrow=open;endFill=1;endSize=12;html=1;rounded=0;entryX=0.25;entryY=1;entryDx=0;entryDy=0;exitX=0.462;exitY=-0.018;exitDx=0;exitDy=0;exitPerimeter=0;" edge="1" parent="WIyWlLk6GJQsqaUBKTNV-1" source="0mSVWusYjBxYVpm7WllX-9" target="0mSVWusYjBxYVpm7WllX-20">
          <mxGeometry width="160" relative="1" as="geometry">
            <mxPoint x="597" y="234" as="sourcePoint" />
            <mxPoint x="419" y="178" as="targetPoint" />
          </mxGeometry>
        </mxCell>
        <mxCell id="0mSVWusYjBxYVpm7WllX-25" value="" style="endArrow=open;endFill=1;endSize=12;html=1;rounded=0;exitX=0.5;exitY=0;exitDx=0;exitDy=0;entryX=0.699;entryY=0.995;entryDx=0;entryDy=0;entryPerimeter=0;" edge="1" parent="WIyWlLk6GJQsqaUBKTNV-1" source="0mSVWusYjBxYVpm7WllX-0" target="0mSVWusYjBxYVpm7WllX-20">
          <mxGeometry width="160" relative="1" as="geometry">
            <mxPoint x="313" y="442" as="sourcePoint" />
            <mxPoint x="473" y="442" as="targetPoint" />
          </mxGeometry>
        </mxCell>
      </root>
    </mxGraphModel>
  </diagram>
  <diagram id="hxaCKCF0SJqv9T6rKnqF" name="app">
    <mxGraphModel dx="775" dy="378" grid="0" gridSize="10" guides="1" tooltips="1" connect="1" arrows="1" fold="1" page="1" pageScale="1" pageWidth="850" pageHeight="1100" math="0" shadow="0">
      <root>
        <mxCell id="0" />
        <mxCell id="1" parent="0" />
        <mxCell id="OgXrERW6iNx65XjbAF38-1" value="ISignupDialog" style="swimlane;fontStyle=1;align=center;verticalAlign=top;childLayout=stackLayout;horizontal=1;startSize=26;horizontalStack=0;resizeParent=1;resizeParentMax=0;resizeLast=0;collapsible=1;marginBottom=0;whiteSpace=wrap;html=1;" vertex="1" parent="1">
          <mxGeometry x="571" y="350" width="160" height="60" as="geometry" />
        </mxCell>
        <mxCell id="OgXrERW6iNx65XjbAF38-2" value="" style="line;strokeWidth=1;fillColor=none;align=left;verticalAlign=middle;spacingTop=-1;spacingLeft=3;spacingRight=3;rotatable=0;labelPosition=right;points=[];portConstraint=eastwest;strokeColor=inherit;" vertex="1" parent="OgXrERW6iNx65XjbAF38-1">
          <mxGeometry y="26" width="160" height="8" as="geometry" />
        </mxCell>
        <mxCell id="OgXrERW6iNx65XjbAF38-3" value="+ add_widget( widget )" style="text;strokeColor=none;fillColor=none;align=left;verticalAlign=top;spacingLeft=4;spacingRight=4;overflow=hidden;rotatable=0;points=[[0,0.5],[1,0.5]];portConstraint=eastwest;whiteSpace=wrap;html=1;" vertex="1" parent="OgXrERW6iNx65XjbAF38-1">
          <mxGeometry y="34" width="160" height="26" as="geometry" />
        </mxCell>
        <mxCell id="OgXrERW6iNx65XjbAF38-4" value="SignupDialog" style="swimlane;fontStyle=1;align=center;verticalAlign=top;childLayout=stackLayout;horizontal=1;startSize=26;horizontalStack=0;resizeParent=1;resizeParentMax=0;resizeLast=0;collapsible=1;marginBottom=0;whiteSpace=wrap;html=1;" vertex="1" parent="1">
          <mxGeometry x="571" y="496" width="160" height="60" as="geometry" />
        </mxCell>
        <mxCell id="OgXrERW6iNx65XjbAF38-5" value="" style="line;strokeWidth=1;fillColor=none;align=left;verticalAlign=middle;spacingTop=-1;spacingLeft=3;spacingRight=3;rotatable=0;labelPosition=right;points=[];portConstraint=eastwest;strokeColor=inherit;" vertex="1" parent="OgXrERW6iNx65XjbAF38-4">
          <mxGeometry y="26" width="160" height="8" as="geometry" />
        </mxCell>
        <mxCell id="OgXrERW6iNx65XjbAF38-6" value="+ add_widget( widget )" style="text;strokeColor=none;fillColor=none;align=left;verticalAlign=top;spacingLeft=4;spacingRight=4;overflow=hidden;rotatable=0;points=[[0,0.5],[1,0.5]];portConstraint=eastwest;whiteSpace=wrap;html=1;" vertex="1" parent="OgXrERW6iNx65XjbAF38-4">
          <mxGeometry y="34" width="160" height="26" as="geometry" />
        </mxCell>
        <mxCell id="OgXrERW6iNx65XjbAF38-7" value="" style="endArrow=block;dashed=1;endFill=0;endSize=12;html=1;rounded=0;exitX=0.5;exitY=0;exitDx=0;exitDy=0;entryX=0.487;entryY=1.125;entryDx=0;entryDy=0;entryPerimeter=0;" edge="1" parent="1" source="OgXrERW6iNx65XjbAF38-4" target="OgXrERW6iNx65XjbAF38-3">
          <mxGeometry width="160" relative="1" as="geometry">
            <mxPoint x="742" y="566" as="sourcePoint" />
            <mxPoint x="902" y="566" as="targetPoint" />
          </mxGeometry>
        </mxCell>
        <mxCell id="OgXrERW6iNx65XjbAF38-8" value="ISignupDialogBuilder" style="swimlane;fontStyle=1;align=center;verticalAlign=top;childLayout=stackLayout;horizontal=1;startSize=26;horizontalStack=0;resizeParent=1;resizeParentMax=0;resizeLast=0;collapsible=1;marginBottom=0;whiteSpace=wrap;html=1;" vertex="1" parent="1">
          <mxGeometry x="235" y="350" width="160" height="60" as="geometry" />
        </mxCell>
        <mxCell id="OgXrERW6iNx65XjbAF38-9" value="" style="line;strokeWidth=1;fillColor=none;align=left;verticalAlign=middle;spacingTop=-1;spacingLeft=3;spacingRight=3;rotatable=0;labelPosition=right;points=[];portConstraint=eastwest;strokeColor=inherit;" vertex="1" parent="OgXrERW6iNx65XjbAF38-8">
          <mxGeometry y="26" width="160" height="8" as="geometry" />
        </mxCell>
        <mxCell id="OgXrERW6iNx65XjbAF38-10" value="+ build( ) : ISignupDialog" style="text;strokeColor=none;fillColor=none;align=left;verticalAlign=top;spacingLeft=4;spacingRight=4;overflow=hidden;rotatable=0;points=[[0,0.5],[1,0.5]];portConstraint=eastwest;whiteSpace=wrap;html=1;" vertex="1" parent="OgXrERW6iNx65XjbAF38-8">
          <mxGeometry y="34" width="160" height="26" as="geometry" />
        </mxCell>
        <mxCell id="OgXrERW6iNx65XjbAF38-11" value="SignupDialogBuilderV1" style="swimlane;fontStyle=1;align=center;verticalAlign=top;childLayout=stackLayout;horizontal=1;startSize=26;horizontalStack=0;resizeParent=1;resizeParentMax=0;resizeLast=0;collapsible=1;marginBottom=0;whiteSpace=wrap;html=1;" vertex="1" parent="1">
          <mxGeometry x="165" y="486" width="293.5" height="164" as="geometry" />
        </mxCell>
        <mxCell id="OgXrERW6iNx65XjbAF38-12" value="- signup_dialog : ISignupDialog" style="text;strokeColor=none;fillColor=none;align=left;verticalAlign=top;spacingLeft=4;spacingRight=4;overflow=hidden;rotatable=0;points=[[0,0.5],[1,0.5]];portConstraint=eastwest;whiteSpace=wrap;html=1;" vertex="1" parent="OgXrERW6iNx65XjbAF38-11">
          <mxGeometry y="26" width="293.5" height="26" as="geometry" />
        </mxCell>
        <mxCell id="OgXrERW6iNx65XjbAF38-13" value="" style="line;strokeWidth=1;fillColor=none;align=left;verticalAlign=middle;spacingTop=-1;spacingLeft=3;spacingRight=3;rotatable=0;labelPosition=right;points=[];portConstraint=eastwest;strokeColor=inherit;" vertex="1" parent="OgXrERW6iNx65XjbAF38-11">
          <mxGeometry y="52" width="293.5" height="8" as="geometry" />
        </mxCell>
        <mxCell id="OgXrERW6iNx65XjbAF38-14" value="- build_logo( widget ) : SignupDialogBuilderV1" style="text;strokeColor=none;fillColor=none;align=left;verticalAlign=top;spacingLeft=4;spacingRight=4;overflow=hidden;rotatable=0;points=[[0,0.5],[1,0.5]];portConstraint=eastwest;whiteSpace=wrap;html=1;" vertex="1" parent="OgXrERW6iNx65XjbAF38-11">
          <mxGeometry y="60" width="293.5" height="26" as="geometry" />
        </mxCell>
        <mxCell id="OgXrERW6iNx65XjbAF38-15" value="- build_input_fields( widget ) : SignupBuilderV1" style="text;strokeColor=none;fillColor=none;align=left;verticalAlign=top;spacingLeft=4;spacingRight=4;overflow=hidden;rotatable=0;points=[[0,0.5],[1,0.5]];portConstraint=eastwest;whiteSpace=wrap;html=1;" vertex="1" parent="OgXrERW6iNx65XjbAF38-11">
          <mxGeometry y="86" width="293.5" height="26" as="geometry" />
        </mxCell>
        <mxCell id="OgXrERW6iNx65XjbAF38-16" value="- build_button( widget ) : SignupBuilderV1" style="text;strokeColor=none;fillColor=none;align=left;verticalAlign=top;spacingLeft=4;spacingRight=4;overflow=hidden;rotatable=0;points=[[0,0.5],[1,0.5]];portConstraint=eastwest;whiteSpace=wrap;html=1;" vertex="1" parent="OgXrERW6iNx65XjbAF38-11">
          <mxGeometry y="112" width="293.5" height="26" as="geometry" />
        </mxCell>
        <mxCell id="OgXrERW6iNx65XjbAF38-17" value="+ build( ) : ISignupDialog" style="text;strokeColor=none;fillColor=none;align=left;verticalAlign=top;spacingLeft=4;spacingRight=4;overflow=hidden;rotatable=0;points=[[0,0.5],[1,0.5]];portConstraint=eastwest;whiteSpace=wrap;html=1;" vertex="1" parent="OgXrERW6iNx65XjbAF38-11">
          <mxGeometry y="138" width="293.5" height="26" as="geometry" />
        </mxCell>
        <mxCell id="OgXrERW6iNx65XjbAF38-18" value="" style="endArrow=block;dashed=1;endFill=0;endSize=12;html=1;rounded=0;exitX=0.5;exitY=0;exitDx=0;exitDy=0;entryX=0.487;entryY=1.125;entryDx=0;entryDy=0;entryPerimeter=0;" edge="1" parent="1" source="OgXrERW6iNx65XjbAF38-11" target="OgXrERW6iNx65XjbAF38-10">
          <mxGeometry width="160" relative="1" as="geometry">
            <mxPoint x="412" y="566" as="sourcePoint" />
            <mxPoint x="572" y="566" as="targetPoint" />
          </mxGeometry>
        </mxCell>
        <mxCell id="OgXrERW6iNx65XjbAF38-19" value="client" style="rounded=0;whiteSpace=wrap;html=1;" vertex="1" parent="1">
          <mxGeometry x="423" y="245" width="120" height="60" as="geometry" />
        </mxCell>
        <mxCell id="OgXrERW6iNx65XjbAF38-20" value="" style="endArrow=diamondThin;endFill=0;endSize=24;html=1;rounded=0;exitX=0;exitY=0.5;exitDx=0;exitDy=0;" edge="1" parent="1" source="OgXrERW6iNx65XjbAF38-4" target="OgXrERW6iNx65XjbAF38-12">
          <mxGeometry width="160" relative="1" as="geometry">
            <mxPoint x="570" y="528" as="sourcePoint" />
            <mxPoint x="560" y="375" as="targetPoint" />
          </mxGeometry>
        </mxCell>
        <mxCell id="OgXrERW6iNx65XjbAF38-21" value="return" style="html=1;verticalAlign=bottom;endArrow=open;dashed=1;endSize=8;curved=0;rounded=0;exitX=1;exitY=0.5;exitDx=0;exitDy=0;entryX=-0.019;entryY=1.154;entryDx=0;entryDy=0;entryPerimeter=0;" edge="1" parent="1" source="OgXrERW6iNx65XjbAF38-17" target="OgXrERW6iNx65XjbAF38-6">
          <mxGeometry relative="1" as="geometry">
            <mxPoint x="373" y="749" as="sourcePoint" />
            <mxPoint x="293" y="749" as="targetPoint" />
          </mxGeometry>
        </mxCell>
        <mxCell id="OgXrERW6iNx65XjbAF38-22" value="" style="endArrow=open;endFill=1;endSize=12;html=1;rounded=0;entryX=0.25;entryY=1;entryDx=0;entryDy=0;exitX=0.462;exitY=-0.018;exitDx=0;exitDy=0;exitPerimeter=0;" edge="1" parent="1" source="OgXrERW6iNx65XjbAF38-8" target="OgXrERW6iNx65XjbAF38-19">
          <mxGeometry width="160" relative="1" as="geometry">
            <mxPoint x="446" y="257" as="sourcePoint" />
            <mxPoint x="268" y="201" as="targetPoint" />
          </mxGeometry>
        </mxCell>
        <mxCell id="OgXrERW6iNx65XjbAF38-23" value="" style="endArrow=open;endFill=1;endSize=12;html=1;rounded=0;exitX=0.5;exitY=0;exitDx=0;exitDy=0;entryX=0.699;entryY=0.995;entryDx=0;entryDy=0;entryPerimeter=0;" edge="1" parent="1" source="OgXrERW6iNx65XjbAF38-1" target="OgXrERW6iNx65XjbAF38-19">
          <mxGeometry width="160" relative="1" as="geometry">
            <mxPoint x="162" y="465" as="sourcePoint" />
            <mxPoint x="322" y="465" as="targetPoint" />
          </mxGeometry>
        </mxCell>
      </root>
    </mxGraphModel>
  </diagram>
</mxfile>
